<svg xmlns="http://www.w3.org/2000/svg" viewBox="0 0 512 512">
<defs><linearGradient id="g" x1="0" x2="1" y1="0" y2="1"><stop stop-color="#17365d"/><stop offset="1" stop-color="#2e7d32"/></linearGradient></defs>
<rect width="512" height="512" rx="112" fill="url(#g)"/>
<path d="M104 304c10-48 52-84 102-84h100c50 0 92 36 102 84h26c18 0 32 14 32 32v32H46v-32c0-18 14-32 32-32h26z" fill="#fff" opacity=".95"/>
<circle cx="152" cy="368" r="34" fill="#172033"/><circle cx="360" cy="368" r="34" fill="#172033"/>
<path d="M154 264h206c-18-30-48-48-84-48h-38c-36 0-66 18-84 48z" fill="#dceafa"/>
</svg>
